<?xml version="1.0" encoding="UTF-8"?>
<svg width="16px" height="16px" viewBox="0 0 16 16" version="1.1" xmlns="http://www.w3.org/2000/svg" xmlns:xlink="http://www.w3.org/1999/xlink">
    <!-- Generator: Sketch 47.1 (45422) - http://www.bohemiancoding.com/sketch -->
    <title>Page 1</title>
    <desc>Created with Sketch.</desc>
    <defs></defs>
    <g id="Page-1" stroke="none" stroke-width="1" fill="none" fill-rule="evenodd">
        <g id="Artboard" transform="translate(-29.000000, -18.000000)" fill="#000000">
            <g id="Page-1" transform="translate(29.000000, 18.000000)">
                <path d="M9.11122956,6.80211295 L3.13716059,6.80211295 C2.97714089,6.80211295 2.85759409,7.00194525 2.85759409,7.14211788 C2.85759409,7.3023349 2.97743645,7.48198471 3.13716059,7.48198471 L9.11122956,7.48198471 C9.27146601,7.48198471 9.39101281,7.28183674 9.39101281,7.14211788 C9.39101281,7.00194525 9.27124926,6.80211295 9.11122956,6.80211295 L9.11122956,6.80211295 Z M9.11122956,4.50162466 L3.13716059,4.50162466 C2.97714089,4.50162466 2.85759409,4.70145697 2.85759409,4.84141258 C2.85759409,5.00155068 2.97743645,5.18157534 3.13716059,5.18157534 L9.11122956,5.18157534 C9.27146601,5.18157534 9.39101281,4.9814471 9.39101281,4.84141258 C9.39101281,4.70145697 9.27124926,4.50162466 9.11122956,4.50162466 L9.11122956,4.50162466 Z M1.25861872,15.0844705 C1.0989734,15.0844705 0.939190148,15.0243571 0.939190148,14.8644557 L0.939190148,2.22088483 C0.919249261,1.92071221 1.11915074,1.98098348 1.33867783,1.98098348 L2.4376532,1.98098348 L2.4376532,2.40106732 C2.4376532,2.56120543 2.61729852,2.70116104 2.79725911,2.70116104 C2.95727882,2.70116104 3.1571803,2.56120543 3.1571803,2.40106732 L3.1571803,1.98098348 L4.79556453,1.98098348 L4.79556453,2.40106732 C4.79556453,2.56120543 4.97520985,2.70116104 5.15524926,2.70116104 C5.31526897,2.70116104 5.51509163,2.56120543 5.51509163,2.40106732 L5.51509163,1.98098348 L7.01369261,1.98098348 L7.01369261,2.40106732 C7.01369261,2.56120543 7.19333793,2.70116104 7.37337734,2.70116104 C7.53355468,2.70116104 7.7332197,2.56120543 7.7332197,2.40106732 L7.7332197,1.98098348 L9.23191921,1.98098348 L9.23191921,2.40106732 C9.23191921,2.56120543 9.41178128,2.70116104 9.59166305,2.70116104 C9.75162365,2.70116104 9.95150542,2.56120543 9.95150542,2.40106732 L9.95150542,1.98098348 L11.2100473,1.98098348 C11.3699882,1.98098348 11.4699882,2.06074673 11.4699882,2.22088483 L11.4699882,4.30149642 L12.389397,3.40137312 L12.389397,2.22088483 C12.389397,1.56066289 11.8897714,1.08062343 11.2100473,1.08062343 L9.93134778,1.08062343 L9.93134778,0.300174599 C9.93134778,0.139957583 9.75154483,1.972873e-06 9.57150542,1.972873e-06 C9.41172217,1.972873e-06 9.21189951,0.139957583 9.21189951,0.300174599 L9.21189951,1.08038668 L7.71327882,1.08038668 L7.71327882,0.300174599 C7.71327882,0.139957583 7.53355468,1.972873e-06 7.35329852,1.972873e-06 C7.19333793,1.972873e-06 6.99385025,0.139957583 6.99385025,0.300174599 L6.99385025,1.08038668 L5.49515074,1.08038668 L5.49515074,0.300174599 C5.49515074,0.139957583 5.31526897,1.972873e-06 5.13530837,1.972873e-06 C4.97528867,1.972873e-06 4.77562365,0.139957583 4.77562365,0.300174599 L4.77562365,1.08038668 L3.13716059,1.08038668 L3.13716059,0.300174599 C3.13716059,0.139957583 2.95727882,1.972873e-06 2.77731823,1.972873e-06 C2.61729852,1.972873e-06 2.41771232,0.139957583 2.41771232,0.300174599 L2.41771232,1.08038668 L1.33867783,1.08038668 C0.439584236,1.08038668 -1.97044335e-06,1.56034723 -1.97044335e-06,2.22056917 L-1.97044335e-06,14.8441943 C-1.97044335e-06,15.5041006 0.59928867,15.9845149 1.27893399,15.9845149 L11.1895744,15.9845149 C11.8689241,15.9845149 12.36853,15.5041006 12.36853,14.8441943 L12.36853,10.4828232 L11.4492788,11.3830254 L11.4492788,14.8637652 C11.4492788,15.0240612 11.3493576,15.0840168 11.1895744,15.0840168 L1.25861872,15.0844705 Z M11.788865,6.02190086 C11.7088256,5.94205869 11.548865,5.94205869 11.4692,6.02190086 L6.73329852,10.6632227 C6.63339704,10.7430846 6.63339704,10.9032227 6.73329852,10.983203 C6.81325911,11.0632819 6.97329852,11.0632819 7.05302266,10.983203 L11.7686286,6.34201924 C11.8689241,6.26196005 11.8689241,6.12192552 11.788865,6.02190086 L11.788865,6.02190086 Z M7.59282562,13.2838293 L6.0340867,11.7435285 L5.61446108,13.0440858 L6.27385025,13.7041499 L7.59282562,13.2838293 Z M11.8689241,5.04154081 L14.4065596,7.52213268 L8.37223448,13.4838195 C8.35221478,13.5038639 8.27193892,13.5840217 8.1523133,13.6038885 C8.13254975,13.6038885 8.13254975,13.6038885 8.11221478,13.623854 L4.95526897,14.6044311 C4.87530837,14.6244755 4.7754069,14.6244755 4.71536749,14.5642831 C4.65556453,14.5044853 4.63554483,14.4242486 4.67511133,14.3240661 L5.67448079,11.2230254 C5.67448079,11.2033953 5.67448079,11.2033953 5.69450049,11.1831142 C5.71436256,11.0828528 5.79440197,10.9630994 5.83388966,10.9428972 L6.99300296,9.88263576 L3.1571803,9.88263576 C2.99714089,9.88263576 2.85729852,9.70215734 2.85729852,9.5627344 C2.85729852,9.40220173 2.99714089,9.22241381 3.1571803,9.22241381 L7.59282562,9.22241381 L11.8689241,5.04154081 Z M15.7452197,6.22195018 L14.8258897,7.1221524 L12.3081951,4.62169371 L13.2276039,3.72141258 C13.5070719,3.44152109 13.9467369,3.40137312 14.1863429,3.64135339 L15.8449044,5.26195018 C16.0649635,5.50163453 16.0247862,5.94182195 15.7452197,6.22195018 L15.7452197,6.22195018 Z" id="Fill-1"></path>
            </g>
        </g>
    </g>
</svg>