<?xml version="1.0" encoding="utf-8"?>
<!-- Generator: Adobe Illustrator 21.0.0, SVG Export Plug-In . SVG Version: 6.00 Build 0)  -->
<svg version="1.1" id="图层_1" xmlns="http://www.w3.org/2000/svg" xmlns:xlink="http://www.w3.org/1999/xlink" x="0px" y="0px"
	 viewBox="0 0 14 16" style="enable-background:new 0 0 14 16;" xml:space="preserve">
<title>权限管理</title>
<desc>Created with Sketch.</desc>
<g id="权限管理_1_">
	<g id="权限管理-角色" transform="translate(-19.000000, -393.000000)">
		<path id="权限管理" d="M25.9,394.6c-1.9,0-3.4,1.4-3.4,3.2h-1.7c0-2.7,2.3-4.8,5.1-4.8c2.8,0,5.1,2.1,5.1,4.8h-1.7
			C29.3,396,27.8,394.6,25.9,394.6L25.9,394.6z M25.9,401.5c-0.9,0-1.7,0.7-1.7,1.6c0,0.6,0.3,1.1,0.9,1.4v1.5
			c0,0.5,0.4,0.8,0.9,0.8c0.5,0,0.9-0.4,0.9-0.8v-1.5c0.5-0.3,0.9-0.8,0.9-1.4C27.6,402.2,26.8,401.5,25.9,401.5L25.9,401.5z
			 M31.6,409H20.1c-0.6,0-1.1-0.5-1.1-1.1v-8c0-0.6,0.5-1.1,1.1-1.1h11.4c0.6,0,1.1,0.5,1.1,1.1v8C32.7,408.5,32.2,409,31.6,409
			L31.6,409z"/>
	</g>
</g>
</svg>
