<?xml version="1.0" encoding="utf-8"?>
<!-- Generator: Adobe Illustrator 21.0.0, SVG Export Plug-In . SVG Version: 6.00 Build 0)  -->
<svg version="1.1" id="图层_1" xmlns="http://www.w3.org/2000/svg" xmlns:xlink="http://www.w3.org/1999/xlink" x="0px" y="0px"
	 viewBox="0 0 15 15" style="enable-background:new 0 0 15 15;" xml:space="preserve">
<title>分组</title>
<desc>Created with Sketch.</desc>
<g id="Clip-2">
</g>
<g>
	<path d="M14.1,0H9C8.5,0,8.1,0.4,8.1,0.9V6c0,0.5,0.4,0.9,0.8,0.9h5.2C14.6,6.9,15,6.5,15,6V0.9C15,0.4,14.6,0,14.1,0z M14.2,5.5
		c0,0.4-0.3,0.7-0.7,0.7h-4c-0.4,0-0.7-0.3-0.7-0.7v-4c0-0.4,0.3-0.7,0.7-0.7h4c0.4,0,0.7,0.3,0.7,0.7V5.5z"/>
	<path d="M6,8.1L6,8.1l-5.2,0C0.4,8.1,0,8.4,0,8.9v5.2C0,14.6,0.4,15,0.9,15H6c0.5,0,0.8-0.4,0.8-0.9V8.9C6.9,8.4,6.5,8.1,6,8.1z
		 M6.1,13.5c0,0.4-0.3,0.7-0.7,0.7h-4c-0.4,0-0.7-0.3-0.7-0.7v-4c0-0.4,0.3-0.7,0.7-0.7h4c0.4,0,0.7,0.3,0.7,0.7V13.5z"/>
	<path d="M14.1,8.1H9C8.5,8.1,8.1,8.5,8.1,9v5.2C8.1,14.6,8.5,15,9,15h5.2c0.5,0,0.8-0.4,0.8-0.9V9C15,8.5,14.6,8.1,14.1,8.1z
		 M14.2,13.6c0,0.4-0.3,0.7-0.7,0.7h-4c-0.4,0-0.7-0.3-0.7-0.7v-4c0-0.4,0.3-0.7,0.7-0.7h4c0.4,0,0.7,0.3,0.7,0.7V13.6z"/>
	<path d="M6.8,0.7C6.7,0.7,6.6,0.8,6.4,1L3,5L0.9,3.1c-0.3-0.3-0.6-0.1-0.7,0C0,3.2-0.1,3.5,0.2,3.8l2.4,2.1C2.7,6,2.8,6,2.8,6
		C3,6.2,3.3,6.2,3.5,5.9l3.7-4.3c0.3-0.3,0.1-0.6,0-0.8C7.1,0.8,6.9,0.7,6.8,0.7z"/>
</g>
</svg>
