<?xml version="1.0" encoding="utf-8"?>
<!-- Generator: Adobe Illustrator 21.0.0, SVG Export Plug-In . SVG Version: 6.00 Build 0)  -->
<svg version="1.1" id="图层_1" xmlns="http://www.w3.org/2000/svg" xmlns:xlink="http://www.w3.org/1999/xlink" x="0px" y="0px"
	 viewBox="0 0 12 16" style="enable-background:new 0 0 12 16;" xml:space="preserve">
<style type="text/css">
	.st0{fill:none;}
</style>
<title>Page 2</title>
<desc>Created with Sketch.</desc>
<g id="Clip-2">
</g>
<g>
	<path class="st0" d="M9.5,5.2L5.4,1.1v5.5L3,4.3L2.2,5.2L5,8l-2.9,2.9L3,11.7l2.3-2.3v5.5l4.1-4.1L6.7,8L9.5,5.2z M6.4,3.8l1.4,1.5
		L6.4,6.6V3.8z M7.9,10.7l-1.4,1.4V9.3L7.9,10.7z"/>
	<polygon points="6.4,3.8 6.4,6.6 7.9,5.2 	"/>
	<polygon points="6.4,12.2 7.9,10.7 6.4,9.3 	"/>
	<path d="M10.8,2.5C9.9,0.9,8.3,0,6,0H5.6C2.3,0.1,0.5,1.6,0.2,4.6C0.1,5.7,0,6.6,0,7.5v1.6c0,1.6,0.3,2.8,0.7,3.8
		c0.9,2,2.4,3.1,4.8,3.1h0.4c2.9-0.1,4.8-1.4,5.5-4.1C12.4,8.4,12.2,5.2,10.8,2.5z M5.4,14.9V9.4L3,11.7l-0.8-0.8L5,8L2.2,5.2L3,4.3
		l2.3,2.3V1.1l4.1,4.1L6.7,8l2.8,2.8L5.4,14.9z"/>
</g>
</svg>
