<?xml version="1.0" encoding="utf-8"?>
<!-- Generator: Adobe Illustrator 21.0.0, SVG Export Plug-In . SVG Version: 6.00 Build 0)  -->
<svg version="1.1" id="图层_1" xmlns="http://www.w3.org/2000/svg" xmlns:xlink="http://www.w3.org/1999/xlink" x="0px" y="0px"
	 viewBox="0 0 12 16" style="enable-background:new 0 0 12 16;" xml:space="preserve">
<title>Page 1</title>
<desc>Created with Sketch.</desc>
<path d="M10.6,6.8H3.5l0-2.8c0-1.5,1-2.7,2.4-2.7c1.4,0,2.4,1.1,2.4,2.7v1.4c0,0.4,0.3,0.7,0.7,0.7c0.3,0,0.6-0.2,0.7-0.5
	c0,0,0.1-0.1,0.1-0.2l0-1.4c0-2.2-1.7-4-3.8-4C3.8,0,2.2,1.8,2.1,4c0,0.1,0,1.9,0,2.9H1.2C0.5,6.8,0,7.3,0,8v6.7
	C0,15.4,0.5,16,1.2,16h9.4c0.7,0,1.4-0.6,1.4-1.3V8C12,7.3,11.3,6.8,10.6,6.8z M6.9,11.8c-0.1,0,0,0.1,0,0.1v0.4
	c0,0.3-0.3,0.5-0.6,0.5H5.9c-0.3,0-0.4-0.2-0.4-0.5v-0.5c0,0,0-0.1-0.1-0.1C5.1,11.5,5,11.2,5,10.9c0-0.6,0.5-1.2,1.2-1.2
	c0.6,0,1.2,0.5,1.2,1.2C7.3,11.3,7.3,11.6,6.9,11.8z"/>
</svg>
