<?xml version="1.0" encoding="utf-8"?>
<!-- Generator: Adobe Illustrator 18.0.0, SVG Export Plug-In . SVG Version: 6.00 Build 0)  -->
<!DOCTYPE svg PUBLIC "-//W3C//DTD SVG 1.1//EN" "http://www.w3.org/Graphics/SVG/1.1/DTD/svg11.dtd">
<svg version="1.1" id="图层_1" xmlns="http://www.w3.org/2000/svg" xmlns:xlink="http://www.w3.org/1999/xlink" x="0px" y="0px"
	 viewBox="0 0 20 20" enable-background="new 0 0 20 20" xml:space="preserve">
<g>
	<g>
		<path d="M6.5,7h3V4h-3V7z M7.5,5h1v1h-1V5z"/>
	</g>
	<g>
		<path d="M10.5,7h3V4h-3V7z M11.5,5h1v1h-1V5z"/>
	</g>
	<g>
		<path d="M6.5,11h3V8h-3V11z M7.5,9h1v1h-1V9z"/>
	</g>
	<g>
		<path d="M10.5,11h3V8h-3V11z M11.5,9h1v1h-1V9z"/>
	</g>
	<g>
		<path d="M6.5,15h3v-3h-3V15z M7.5,13h1v1h-1V13z"/>
	</g>
	<g>
		<path d="M10.5,15h3v-3h-3V15z M11.5,13h1v1h-1V13z"/>
	</g>
	<g>
		<path d="M16,18V3c0-1.1-0.9-2-2-2H6C4.9,1,4,1.9,4,3v15H2v1h2h12h2v-1H16z M15,18H5V3c0-0.6,0.4-1,1-1h8c0.6,0,1,0.4,1,1V18z"/>
	</g>
</g>
</svg>
