<?xml version="1.0" encoding="UTF-8"?>
<svg width="16px" height="16px" viewBox="0 0 16 16" version="1.1" xmlns="http://www.w3.org/2000/svg" xmlns:xlink="http://www.w3.org/1999/xlink">
    <!-- Generator: Sketch 48.2 (47327) - http://www.bohemiancoding.com/sketch -->
    <title>Page 1</title>
    <desc>Created with Sketch.</desc>
    <defs>
        <polygon id="path-1" points="3.97022333e-06 3.90243902e-06 15.9816179 3.90243902e-06 15.9816179 15.9843707 3.97022333e-06 15.9843707"></polygon>
    </defs>
    <g id="Artboard" stroke="none" stroke-width="1" fill="none" fill-rule="evenodd" transform="translate(-41.000000, -41.000000)">
        <g id="Page-1" transform="translate(41.000000, 41.000000)">
            <mask id="mask-2" fill="white">
                <use xlink:href="#path-1"></use>
            </mask>
            <g id="Clip-2"></g>
            <path d="M15.1685797,15.9843746 C14.7199246,15.9843746 14.3554581,15.6261502 14.3554581,15.1851356 L14.3554581,0.799242927 C14.3554581,0.358306341 14.7199246,3.90243902e-06 15.1685797,3.90243902e-06 C15.6171752,3.90243902e-06 15.9816218,0.358306341 15.9816218,0.799242927 L15.9816218,15.1851356 C15.9816218,15.6261502 15.6171752,15.9843746 15.1685797,15.9843746 Z M8.13106104,2.48033561 L10.9347931,2.48033561 L10.9347931,1.37797463 L8.13106104,1.37797463 L8.13106104,2.48033561 Z M8.13106104,14.6064039 L9.25256973,14.6064039 L9.25256973,13.5040429 L8.13106104,13.5040429 L8.13106104,14.6064039 Z M1.40190968,2.48033561 L4.20572109,2.48033561 L4.20572109,1.37797463 L1.40190968,1.37797463 L1.40190968,2.48033561 Z M1.40190968,14.6064039 L2.52341836,14.6064039 L2.52341836,13.5040429 L1.40190968,13.5040429 L1.40190968,14.6064039 Z M11.4955871,3.90243902e-06 L7.570267,3.90243902e-06 C7.09360199,3.90243902e-06 6.72913548,0.358306341 6.72913548,0.826755122 L6.72913548,13.5040429 L5.6076268,13.5040429 L5.6076268,0.826755122 C5.6076268,0.385818537 5.24310074,3.90243902e-06 4.76643573,3.90243902e-06 L0.841115633,3.90243902e-06 C0.364530025,3.90243902e-06 3.97022333e-06,0.358306341 3.97022333e-06,0.826755122 L3.97022333e-06,15.1576234 C3.97022333e-06,15.59856 0.364530025,15.9843746 0.841115633,15.9843746 L4.76643573,15.9843746 C5.24310074,15.9843746 5.6076268,15.6261502 5.6076268,15.1576234 L5.6076268,14.6064039 L6.72913548,14.6064039 L6.72913548,15.1576234 C6.72913548,15.59856 7.09360199,15.9843746 7.570267,15.9843746 L11.4955871,15.9843746 C11.9722521,15.9843746 12.3366988,15.6261502 12.3366988,15.1576234 L12.3366988,0.826755122 C12.3366988,0.358306341 11.9722521,3.90243902e-06 11.4955871,3.90243902e-06 Z" id="Fill-1" fill="#000000" mask="url(#mask-2)"></path>
        </g>
    </g>
</svg>