<?xml version="1.0" encoding="UTF-8"?>
<svg width="16px" height="18px" viewBox="0 0 16 18" version="1.1" xmlns="http://www.w3.org/2000/svg" xmlns:xlink="http://www.w3.org/1999/xlink">
    <!-- Generator: Sketch 50.2 (55047) - http://www.bohemiancoding.com/sketch -->
    <title>错误日志</title>
    <desc>Created with Sketch.</desc>
    <defs>
        <polygon id="path-1" points="0.00272727273 0.00602009569 15.9854318 0.00602009569 15.9854318 17.6339411 0.00272727273 17.6339411"></polygon>
    </defs>
    <g id="强制更新" stroke="none" stroke-width="1" fill="none" fill-rule="evenodd">
        <g id="Artboard" transform="translate(-63.000000, -80.000000)">
            <g id="Group-3" transform="translate(63.000000, 80.000000)">
                <mask id="mask-2" fill="white">
                    <use xlink:href="#path-1"></use>
                </mask>
                <g id="Clip-2"></g>
                <path d="M14.4581818,16.7038191 L1.52725,16.7038191 C1.22727273,16.7038191 0.981795455,16.4712617 0.981795455,16.1870727 L0.981795455,1.46158708 C0.981795455,1.1772689 1.22727273,0.94484067 1.52725,0.94484067 L10.8018409,0.94484067 L10.8018409,3.78345789 C10.8018409,4.58094833 11.4872955,5.23036938 12.3290909,5.23036938 L15.0054091,5.23036938 L15.0054091,16.1888383 C15.0036364,16.4730273 14.7581591,16.7038191 14.4581818,16.7038191 Z M11.7836364,1.63383589 L14.6417727,4.29843876 L12.3290909,4.29843876 C12.0291136,4.29843876 11.7836364,4.0659244 11.7836364,3.78169234 L11.7836364,1.63383589 Z M15.9599545,4.25027368 L15.9745227,4.23645072 L11.4363409,0.00602009569 L11.4145,0.0267114833 L11.4145,0.0145894737 L1.52725,0.0145894737 C0.685454545,0.0145894737 0,0.664010526 0,1.46158708 L0,16.1870727 C0,16.9845632 0.685454545,17.6339411 1.52725,17.6339411 L14.4581818,17.6339411 C15.2999773,17.6339411 15.9854318,16.9845632 15.9854318,16.1870727 L15.9854318,4.25027368 L15.9599545,4.25027368 Z" id="Fill-1" fill="#231916" mask="url(#mask-2)"></path>
                <path d="M7.17,12.8931886 L8.15181818,12.8931886 L8.15181818,11.9665115 L7.17,11.9665115 L7.17,12.8931886 Z M8.56454545,5.42282254 C6.96456818,5.11273163 6.00452273,5.72938235 5.48268182,6.29954742 C4.93181818,6.90241824 4.75727273,7.57761202 4.75,7.60689431 L5.70454545,7.82220532 L5.70454545,7.82397087 C5.70640909,7.81873881 5.84090909,7.31579384 6.24636364,6.88517183 C6.75540909,6.34437517 7.47,6.16000436 8.37002273,6.33401872 C8.87365909,6.432179 9.39363636,6.84899958 9.63184091,7.34852111 C9.78088636,7.66029144 9.89,8.14609766 9.56277273,8.68174838 C9.47,8.83332733 8.97727273,9.09514551 8.65181818,9.26739431 C7.93368182,9.64804264 7.18997727,10.0425139 7.17543182,10.683301 L7.17543182,11.4480857 L8.15731818,11.4480857 L8.15731818,10.7177077 C8.17,10.6953369 8.22452273,10.6177819 8.42640909,10.4800259 C8.62090909,10.3473943 8.88095455,10.2096168 9.13184091,10.0769852 C9.67363636,9.78935125 10.1863409,9.51717661 10.4136136,9.14341824 C10.8299773,8.45778187 10.8681591,7.68442781 10.5263636,6.96440628 C10.1536818,6.18760723 9.38459091,5.58126991 8.56454545,5.42282254 Z" id="Fill-4" fill="#231916" mask="url(#mask-2)"></path>
            </g>
        </g>
    </g>
</svg>