<?xml version="1.0" encoding="utf-8"?>
<!-- Generator: Adobe Illustrator 18.0.0, SVG Export Plug-In . SVG Version: 6.00 Build 0)  -->
<!DOCTYPE svg PUBLIC "-//W3C//DTD SVG 1.1//EN" "http://www.w3.org/Graphics/SVG/1.1/DTD/svg11.dtd">
<svg version="1.1" id="图层_1" xmlns="http://www.w3.org/2000/svg" xmlns:xlink="http://www.w3.org/1999/xlink" x="0px" y="0px"
	 viewBox="0 0 16 16" enable-background="new 0 0 16 16" xml:space="preserve">
<path d="M15.8,8.2c-0.2,0.2-0.2,0.2-0.8,0.2h-1.2v5.4c0,0.8-0.5,1.3-1.4,1.3l-2.9,0v-4.7c0-0.6-0.4-0.8-0.8-0.8H7.2
	c-0.4,0-0.8,0.3-0.8,0.8V15l-2.8,0c-0.9,0-1.4-0.4-1.4-1.4V8.4H1c-0.6,0-0.7-0.1-0.8-0.2c-0.3-0.3-0.3-0.7,0.5-1.3l6.7-5.5
	C7.5,1.3,7.7,1,8,1h0.1c0.3,0,0.5,0.2,0.6,0.3l6.6,5.5C16,7.2,16.2,7.8,15.8,8.2z"/>
</svg>
