<?xml version="1.0" encoding="UTF-8"?>
<svg width="16px" height="16px" viewBox="0 0 16 16" version="1.1" xmlns="http://www.w3.org/2000/svg" xmlns:xlink="http://www.w3.org/1999/xlink">
    <!-- Generator: Sketch 49 (51002) - http://www.bohemiancoding.com/sketch -->
    <title>Page 1</title>
    <desc>Created with Sketch.</desc>
    <defs>
        <polygon id="path-1" points="0 0.00777745242 15.9820005 0.00777745242 15.9820005 16 0 16"></polygon>
        <polygon id="path-3" points="0 16 16 16 16 0 0 0"></polygon>
    </defs>
    <g id="更新包上传" stroke="none" stroke-width="1" fill="none" fill-rule="evenodd">
        <g id="Artboard" transform="translate(-19.000000, -50.000000)">
            <g id="Page-1" transform="translate(19.000000, 50.000000)">
                <g id="Group-3">
                    <mask id="mask-2" fill="white">
                        <use xlink:href="#path-1"></use>
                    </mask>
                    <g id="Clip-2"></g>
                    <path d="M1.99775912,0.00777745242 L13.9842173,0.00777745242 C14.5140609,0.00777745242 15.0221981,0.232433382 15.3968702,0.632316252 C15.7715204,1.03222255 15.9820005,1.57458272 15.9820005,2.14011127 L15.9820005,13.8676896 C15.9820005,14.4331947 15.7715204,14.9755549 15.3968702,15.3754612 C15.0221981,15.7753441 14.5140609,16 13.9842173,16 L1.99775912,16 C1.46793745,16 0.959778326,15.7753441 0.585128121,15.3754612 C0.210477915,14.9755549 -2.19478738e-06,14.4331947 -2.19478738e-06,13.8676896 L-2.19478738e-06,2.14011127 C-2.19478738e-06,0.962483163 0.894461454,0.00777745242 1.99775912,0.00777745242 Z M1.99775912,1.07394436 C1.73284829,1.07394436 1.4787358,1.18622548 1.2914107,1.38616691 C1.1040856,1.58610835 0.998889438,1.85733529 0.998889438,2.14011127 L0.998889438,13.8676896 C0.998889438,14.4565505 1.44607737,14.9338565 1.99775912,14.9338565 L13.9842173,14.9338565 C14.5358332,14.9338565 14.9831089,14.4565505 14.9831089,13.8676896 L14.9831089,2.14011127 C14.9831089,1.55125037 14.5358332,1.07394436 13.9842173,1.07394436 L1.99775912,1.07394436 Z" id="Fill-1" fill="#000000" mask="url(#mask-2)"></path>
                </g>
                <mask id="mask-4" fill="white">
                    <use xlink:href="#path-3"></use>
                </mask>
                <g id="Clip-5"></g>
                <polygon id="Fill-4" fill="#000000" mask="url(#mask-4)" points="0 5 16 5 16 4 0 4"></polygon>
                <path d="M3.72093897,11.8066904 L2.084603,10.1316566 C1.971799,10.0161699 1.971799,9.82895919 2.084603,9.7133858 L3.72093897,8.03939241 C3.83391247,7.92399242 4.01682699,7.92399242 4.12980049,8.03939241 L4.40267853,8.31855026 C4.51548252,8.43410197 4.51548252,8.62124763 4.40267853,8.73682102 L3.44808212,9.7133858 C3.33525693,9.82895919 3.33525693,10.0161699 3.44808212,10.1316566 L4.40267853,11.108308 C4.51548252,11.2237947 4.51548252,11.4110271 4.40267853,11.5266005 L4.12980049,11.8057583 C4.01716599,11.9214184 3.83416672,11.9218302 3.72093897,11.8066904 Z M11.2789551,11.8066904 C11.1660663,11.9220904 10.9830671,11.9220904 10.8700936,11.8066904 L10.5972367,11.5275325 C10.4844115,11.4120458 10.4844115,11.2248135 10.5972367,11.1092618 L11.5519179,10.1326753 C11.6647219,10.0171019 11.6647219,9.82997793 11.5519179,9.71440455 L10.5972367,8.73783976 C10.4844115,8.62226637 10.4844115,8.43503402 10.5972367,8.319569 L10.8700936,8.04041115 C10.9830671,7.92501117 11.1660663,7.92501117 11.2789551,8.04041115 L12.915397,9.71440455 C13.028201,9.82997793 13.028201,10.0171019 12.915397,10.1326753 L11.2789551,11.8066904 Z M7.89337322,7.29657545 C7.99965136,7.04680948 8.28369539,6.93242824 8.52792748,7.04104382 C8.77209602,7.14976777 8.88390418,7.44034857 8.77764723,7.69013622 L6.64750773,12.7034245 C6.54133553,12.9531905 6.25720675,13.0675718 6.01303822,12.9589562 C5.76889087,12.8502322 5.65706152,12.5596298 5.76333966,12.3097988 L7.89337322,7.29657545 Z" id="Fill-6" fill="#000000" mask="url(#mask-4)"></path>
                <path d="M4.50000183,2 L7.4999469,2 C7.77614285,2 8,2.223836 8,2.49996704 C8,2.77607611 7.77614285,3 7.4999469,3 L4.50000183,3 C4.2238718,3 3.99994873,2.77607611 3.99994873,2.49996704 C3.99994873,2.223836 4.2238718,2 4.50000183,2 M2.49996521,2 C2.77609524,2 3.00001831,2.223836 3.00001831,2.49996704 C3.00001831,2.77607611 2.77609524,3 2.49996521,3 C2.22385715,3 2,2.77607611 2,2.49996704 C2,2.223836 2.22385715,2 2.49996521,2" id="Fill-7" fill="#000000" mask="url(#mask-4)"></path>
            </g>
        </g>
    </g>
</svg>