<?xml version="1.0" encoding="UTF-8"?>
<svg width="16px" height="16px" viewBox="0 0 16 16" version="1.1" xmlns="http://www.w3.org/2000/svg" xmlns:xlink="http://www.w3.org/1999/xlink">
    <!-- Generator: Sketch 49 (51002) - http://www.bohemiancoding.com/sketch -->
    <title>Page 1</title>
    <desc>Created with Sketch.</desc>
    <defs></defs>
    <g id="密码安全策略" stroke="none" stroke-width="1" fill="none" fill-rule="evenodd">
        <g id="Artboard" transform="translate(-48.000000, -47.000000)" fill="#000000">
            <g id="Page-1" transform="translate(48.000000, 47.000000)">
                <path d="M7.99091966,1.03831805 C4.14124933,1.03831805 1.02007717,4.15533268 1.02007717,8.00067902 C1.02007717,11.8459668 4.14124933,14.9629424 7.99091966,14.9629424 C11.840883,14.9629424 14.9617035,11.8459668 14.9617035,8.00067902 C14.9617035,4.15533268 11.840883,1.03831805 7.99091966,1.03831805 M7.99091966,15.9817912 C3.57745934,15.9817912 3.90720391e-06,12.4083668 3.90720391e-06,8.00067902 C3.90720391e-06,3.59289366 3.57745934,0.0195082927 7.99091966,0.0195082927 C12.4040088,0.0195082927 15.9817573,3.59289366 15.9817573,8.00067902 C15.9817573,12.4083668 12.4040088,15.9817912 7.99091966,15.9817912" id="Fill-1"></path>
                <path d="M8.68581197,9.93734634 C8.68581197,9.77545366 8.62636386,9.63512195 8.50785836,9.51644878 C8.38911844,9.3980878 8.24863492,9.33879024 8.08654457,9.33879024 C7.92406349,9.33879024 7.78365812,9.3980878 7.66513309,9.51644878 C7.54631502,9.63512195 7.48717949,9.77545366 7.48717949,9.93734634 C7.48717949,10.0996098 7.54631502,10.2398634 7.66513309,10.3582244 C7.78365812,10.4768976 7.92406349,10.535961 8.08654457,10.535961 C8.24863492,10.535961 8.38911844,10.4768976 8.50785836,10.3582244 C8.626442,10.2398634 8.68581197,10.0996098 8.68581197,9.93734634 Z M9.28517705,5.14870244 C9.28517705,4.82452683 9.16635897,4.54398049 8.92932845,4.30692683 C8.69200488,4.07018537 8.41101832,3.9515122 8.08654457,3.9515122 C7.7616801,3.9515122 7.48077167,4.07018537 7.24374115,4.30692683 C7.00641758,4.54398049 6.88789255,4.82452683 6.88789255,5.14870244 L6.88789255,6.94442927 L9.28517705,6.94442927 L9.28517705,5.14870244 Z M11.5045079,7.1220878 C11.6230134,7.24076098 11.6823834,7.38109268 11.6823834,7.54298537 L11.6823834,11.7331512 C11.6823834,11.8950439 11.6230134,12.0353561 11.5045079,12.1539512 C11.3856899,12.2724098 11.2451868,12.3317073 11.0830965,12.3317073 L5.08989499,12.3317073 C4.9275116,12.3317073 4.78708669,12.2724098 4.66850305,12.1539512 C4.54976313,12.0353561 4.49060806,11.8950439 4.49060806,11.7331512 L4.49060806,7.54306341 C4.49060806,7.38109268 4.54976313,7.24083902 4.66850305,7.12216585 C4.78708669,7.00380488 4.9275116,6.94442927 5.08989499,6.94442927 L5.68926007,6.94442927 L5.68926007,5.14870244 C5.68926007,4.48780488 5.92337973,3.92347317 6.39156044,3.45578537 C6.85981929,2.98817561 7.42452747,2.75434146 8.08654457,2.75434146 C8.74817094,2.75434146 9.31326984,2.98817561 9.78145055,3.45578537 C10.2496899,3.92347317 10.4837509,4.48780488 10.4837509,5.14870244 L10.4837509,6.94442927 L11.0830965,6.94442927 C11.2451868,6.94442927 11.3856899,7.00372683 11.5045079,7.1220878 Z" id="Fill-4"></path>
            </g>
        </g>
    </g>
</svg>