<?xml version="1.0" encoding="utf-8"?>
<!-- Generator: Adobe Illustrator 19.0.0, SVG Export Plug-In . SVG Version: 6.00 Build 0)  -->
<svg version="1.1" id="图层_1" xmlns="http://www.w3.org/2000/svg" xmlns:xlink="http://www.w3.org/1999/xlink" x="0px" y="0px"
	 viewBox="0 0 16 16" style="enable-background:new 0 0 16 16;" xml:space="preserve">
<style type="text/css">
	.st0{fill:none;}
	.st1{fill:#040000;}
</style>
<g id="XMLID_2_">
	<path id="XMLID_9_" class="st0" d="M11.9,9.8c-1.1,0-2.1,0.9-2.1,2.1c0,1.2,0.9,2.1,2.1,2.1c1.2,0,2.1-0.9,2-2.1h0
		C13.9,10.7,13,9.8,11.9,9.8z"/>
	<polygon id="XMLID_8_" class="st1" points="7.8,11.1 7.8,11.1 7.8,11.1 	"/>
	<path id="XMLID_5_" class="st1" d="M15.2,12.9c0.2-0.1,0.5-0.1,0.8-0.2v-1.6c-0.2-0.1-0.5-0.1-0.7-0.2c-0.5-0.1-0.6-0.3-0.2-0.7
		c0.1-0.1,0.3-0.2,0.5-0.4c-0.4-0.6-0.8-1.1-1.2-1.6c-0.1,0.1-0.3,0.2-0.4,0.3c-0.8,0.7-0.9,0.6-1.2-0.3c0-0.1-0.2-0.3-0.3-0.3
		c-0.5,0-0.9,0-1.4,0C11,8,11,8.3,10.9,8.5c-0.2,0.4-0.4,0.5-0.8,0.2C9.9,8.5,9.6,8.4,9.4,8.2C9.2,8.5,9,8.7,8.8,9
		C8.6,9.3,8.4,9.5,8.2,9.8c0.2,0.2,0.3,0.4,0.5,0.6c0.2,0.3,0.2,0.5-0.2,0.6C8.2,11,8,11,7.8,11.1v1.6c0.3,0.1,0.5,0.1,0.7,0.2
		C8.9,13,9,13.3,8.6,13.6c-0.1,0.1-0.3,0.3-0.5,0.4c0.4,0.5,0.8,1.1,1.2,1.6c0.3-0.2,0.6-0.4,0.9-0.5c0.3-0.2,0.5-0.1,0.6,0.3
		c0.1,0.2,0.1,0.5,0.2,0.7h1.6c0-0.1,0-0.2,0-0.3c0-0.1,0-0.2,0-0.3c0.1-0.4,0.4-0.5,0.7-0.3c0.2,0.2,0.4,0.3,0.5,0.4
		c0.6-0.5,1.1-1,1.6-1.6c-0.1-0.1-0.3-0.2-0.4-0.4C14.8,13.3,14.8,13,15.2,12.9z M13.9,11.9c0,1.2-0.9,2.1-2,2.1
		c-1.2,0-2.1-0.9-2.1-2.1c0-1.2,0.9-2.1,2.1-2.1C13,9.8,13.9,10.7,13.9,11.9L13.9,11.9z"/>
	<path id="XMLID_4_" class="st1" d="M7.4,10.3C7.5,10,7.7,9.7,7.8,9.4c0.1-0.2,0.3-0.5,0.3-0.7C8,8.4,7.5,8.5,7.3,8.5
		c-0.4,0-0.9,0-1.3,0c-0.9,0-1.7,0-2.6,0c-1.2,0.1-2.1,0.7-2.5,1.8c-0.3,0.7-0.5,1.5-0.7,2.2C0.1,12.8,0,13,0,13.3
		c0,0.3,0.1,0.5,0.4,0.6C0.6,13.9,0.9,14,1.1,14l0,0c0.4,0.1,0.8,0.1,1.2,0.1c1,0.1,1.9,0.2,2.9,0.2c0.5,0,1,0.1,1.4,0
		c0.4,0,0.6-0.4,0.5-0.7c-0.1-0.7-0.2-1.3-0.2-2C7,11.2,7.2,10.7,7.4,10.3z"/>
	<ellipse id="XMLID_3_" class="st1" cx="7.9" cy="3.6" rx="3.6" ry="3.6"/>
</g>
</svg>
