<?xml version="1.0" encoding="utf-8"?>
<!-- Generator: Adobe Illustrator 21.0.0, SVG Export Plug-In . SVG Version: 6.00 Build 0)  -->
<svg version="1.1" id="图层_1" xmlns="http://www.w3.org/2000/svg" xmlns:xlink="http://www.w3.org/1999/xlink" x="0px" y="0px"
	 viewBox="0 0 8 9" style="enable-background:new 0 0 8 9;" xml:space="preserve">
<title>未认证</title>
<desc>Created with Sketch.</desc>
<path d="M7.8,1.9c-1.2-0.5-2.2-1-3-1.6c-0.5-0.3-1.1-0.3-1.6,0c-0.8,0.6-1.9,1.2-3,1.6C0.1,1.9,0,2,0,2.2v2.5C0,6.8,3.4,9,4,9
	s4-2.2,4-4.4V2.2C8,2,7.9,1.9,7.8,1.9z M4.3,6.3c0,0.2-0.1,0.3-0.3,0.3S3.7,6.5,3.7,6.3V6c0-0.2,0.1-0.3,0.3-0.3S4.3,5.9,4.3,6V6.3z
	 M4.3,4.9c0,0.2-0.1,0.3-0.3,0.3S3.7,5.1,3.7,4.9V2.8c0-0.2,0.1-0.3,0.3-0.3s0.3,0.1,0.3,0.3V4.9z"/>
</svg>
