<?xml version="1.0" encoding="utf-8"?>
<!-- Generator: Adobe Illustrator 21.0.0, SVG Export Plug-In . SVG Version: 6.00 Build 0)  -->
<svg version="1.1" id="图层_1" xmlns="http://www.w3.org/2000/svg" xmlns:xlink="http://www.w3.org/1999/xlink" x="0px" y="0px"
	 viewBox="0 0 16 16" style="enable-background:new 0 0 16 16;" xml:space="preserve">
<title>Page 1</title>
<desc>Created with Sketch.</desc>
<g id="Clip-2">
</g>
<g>
	<path d="M11.5,5.3h2.5c0.2,0,0.4-0.2,0.4-0.4s-0.2-0.4-0.4-0.4h-2.5c-0.2,0-0.4,0.2-0.4,0.4S11.2,5.3,11.5,5.3z"/>
	<path d="M11.5,2.7h4.1c0.2,0,0.4-0.2,0.4-0.4s-0.2-0.4-0.4-0.4h-4.1C11.2,1.8,11,2,11,2.2S11.2,2.7,11.5,2.7z"/>
	<path d="M8.5,9.7C8.2,9.6,8,9.2,8,8.9c1.4-0.7,2-2.6,2-4.5C10,2,8.7,0,6.6,0C4.4,0,3.1,2,3.1,4.4c0,1.8,0.6,3.8,2,4.5
		c0,0.3-0.1,0.7-0.4,0.9C1.8,10.5-0.1,13.1,0,16h13.1C13.2,13.1,11.3,10.5,8.5,9.7z"/>
	<path d="M15.6,7.1h-4.1c-0.2,0-0.4,0.2-0.4,0.4v0C11,7.8,11.2,8,11.5,8h4.1C15.8,8,16,7.8,16,7.5S15.8,7.1,15.6,7.1z"/>
</g>
</svg>
