<?xml version="1.0" encoding="utf-8"?>
<!-- Generator: Adobe Illustrator 21.0.0, SVG Export Plug-In . SVG Version: 6.00 Build 0)  -->
<svg version="1.1" id="图层_1" xmlns="http://www.w3.org/2000/svg" xmlns:xlink="http://www.w3.org/1999/xlink" x="0px" y="0px"
	 viewBox="0 0 16 17" style="enable-background:new 0 0 16 17;" xml:space="preserve">
<title>Page 1</title>
<desc>Created with Sketch.</desc>
<g>
	<path d="M11.9,11.9c-0.4,0-0.7,0.3-0.7,0.7v1.3c0,0.4-0.3,0.7-0.7,0.7H2c-0.4,0-0.7-0.3-0.7-0.7V2.1c0-0.4,0.3-0.7,0.7-0.7h8.6
		c0.4,0,0.7,0.3,0.7,0.7v3.8c0,0.4,0.3,0.7,0.7,0.7c0.4,0,0.7-0.3,0.7-0.7V2.1c0-1.2-0.9-2.1-2-2.1H2C0.9,0,0,1,0,2.1v11.8
		C0,15.1,0.9,16,2,16h8.6v0c1.1,0,2-0.9,2-2.1v-1.3C12.6,12.2,12.3,11.9,11.9,11.9z"/>
	<path d="M7,11.7c0.2,0.2,0.5,0.1,1-0.2c0.2-0.1,0.2-0.3,0.2-0.5c0-0.1-0.1-0.1-0.2-0.2c-0.1,0-0.2,0-0.3,0c-0.1,0-0.1,0.1-0.2,0.1
		c0-0.2,0-0.4,0-0.6c0-0.1-0.1-0.5-0.5-0.6C6.8,9.7,6.5,10,6,10.6l-0.2,0.3l0-0.2c0-0.3,0-0.6-0.1-1C5.5,9.3,5.3,9.2,5.2,9.2
		C5,9.1,4.4,9,3,11.7c-0.1,0.2,0,0.4,0.1,0.5c0,0,0.1,0,0.2,0c0.1,0,0.2-0.1,0.3-0.2c0.5-0.9,1.1-1.8,1.4-2.1c0,0.3,0.1,0.5,0.1,0.8
		c0,0.5,0.1,0.9,0.4,1c0.3,0.1,0.6-0.2,0.8-0.4l0.3-0.3c0.2-0.2,0.4-0.4,0.5-0.5l0,0c0,0.2,0,0.4,0,0.5C6.9,11.2,6.8,11.5,7,11.7z"
		/>
	<polygon points="9.6,11.7 11.4,11.2 16,6.3 14.6,4.8 9.9,9.7 	"/>
	<rect x="2.6" y="4.2" width="7.3" height="0.7"/>
	<rect x="2.6" y="5.6" width="7.3" height="0.7"/>
	<rect x="2.6" y="7" width="6" height="0.7"/>
</g>
</svg>
