<?xml version="1.0" encoding="utf-8"?>
<!-- Generator: Adobe Illustrator 21.0.0, SVG Export Plug-In . SVG Version: 6.00 Build 0)  -->
<svg version="1.1" id="图层_1" xmlns="http://www.w3.org/2000/svg" xmlns:xlink="http://www.w3.org/1999/xlink" x="0px" y="0px"
	 viewBox="0 0 16 16" style="enable-background:new 0 0 16 16;" xml:space="preserve">
<title>工时配置</title>
<desc>Created with Sketch.</desc>
<g id="Clip-2">
</g>
<g>
	<path d="M4.5,10.8h2.2c0.1-0.3,0.1-0.5,0.2-0.8H4.5c-0.1,0-0.2,0-0.3,0.1c-0.1,0.1-0.1,0.2-0.1,0.3v0c0,0.1,0,0.2,0.1,0.3
		C4.3,10.8,4.4,10.8,4.5,10.8z"/>
	<path d="M4.5,8.4L4.5,8.4l3.4,0c0.3-0.3,0.6-0.6,1-0.8H4.5c-0.1,0-0.2,0-0.3,0.1C4.1,7.8,4.1,7.9,4.1,8v0c0,0.1,0,0.2,0.1,0.3
		C4.3,8.4,4.4,8.4,4.5,8.4z"/>
	<path d="M4.5,6h6.2c0.2,0,0.4-0.2,0.4-0.4v0c0-0.2-0.2-0.4-0.4-0.4H4.5c-0.2,0-0.4,0.2-0.4,0.4v0C4.1,5.8,4.3,6,4.5,6z"/>
	<path d="M12.1,2.2c0.2,0.1,0.2,0.4,0.2,0.6l0,4c0.3,0,0.6,0.1,0.8,0.2V2.8c0-0.9-0.7-1.6-1.6-1.6h-0.8V2h0.8
		C11.7,2,11.9,2.1,12.1,2.2z"/>
	<rect x="4.1" y="1.2" width="4.9" height="0.8"/>
	<path d="M3.3,3.2L3.3,3.2c0.1,0,0.2,0,0.3-0.1C3.7,3,3.7,2.9,3.7,2.8V0.4c0-0.1,0-0.2-0.1-0.3C3.5,0,3.4,0,3.3,0h0
		C3.2,0,3.1,0,3,0.1C2.9,0.2,2.9,0.3,2.9,0.4v2.4c0,0.1,0,0.2,0.1,0.3C3.1,3.2,3.2,3.2,3.3,3.2z"/>
	<path d="M9.8,3.2L9.8,3.2c0.1,0,0.2,0,0.3-0.1s0.1-0.2,0.1-0.3V0.4c0-0.1,0-0.2-0.1-0.3C10.1,0,10,0,9.9,0h0C9.7,0,9.6,0,9.6,0.1
		C9.5,0.2,9.4,0.3,9.4,0.4v2.4c0,0.1,0,0.2,0.1,0.3C9.6,3.2,9.7,3.2,9.8,3.2z"/>
	<path d="M2.8,6L2.8,6C3,6,3.1,6,3.2,5.9c0.1-0.1,0.1-0.2,0.1-0.3v0c0-0.1,0-0.2-0.1-0.3C3.1,5.2,3,5.2,2.9,5.2h0
		c-0.1,0-0.2,0-0.3,0.1C2.5,5.4,2.5,5.5,2.5,5.6v0c0,0.1,0,0.2,0.1,0.3C2.6,6,2.7,6,2.8,6z"/>
	<path d="M1.6,14c-0.5,0-0.8-0.4-0.8-0.8V2.8C0.8,2.4,1.2,2,1.6,2h0.8V1.2H1.6C0.7,1.2,0,1.9,0,2.8v10.4c0,0.9,0.7,1.6,1.6,1.6h6
		c-0.2-0.3-0.4-0.5-0.5-0.8H1.6z"/>
	<path d="M11.7,7.6c-2.4,0-4.3,1.9-4.3,4.2c0,2.3,1.9,4.2,4.3,4.2c2.4,0,4.3-1.9,4.3-4.2C16,9.5,14.1,7.6,11.7,7.6z M11.7,15.2
		c-1.9,0-3.5-1.5-3.5-3.4s1.6-3.4,3.5-3.4c1.9,0,3.5,1.5,3.5,3.4C15.2,13.7,13.6,15.2,11.7,15.2z"/>
	<path d="M13.7,12.4l-1.8-0.7V10c0-0.1,0-0.2-0.1-0.3c-0.1-0.1-0.2-0.1-0.3-0.1h0c-0.1,0-0.2,0-0.3,0.1c-0.1,0.1-0.1,0.2-0.1,0.3v2
		c0,0,0,0.1,0,0.1c0,0.1,0,0.1,0.1,0.2c0,0,0,0,0.1,0c0,0,0,0,0.1,0c0,0,0,0,0,0l2.1,0.8c0.2,0.1,0.4,0,0.5-0.2
		C14,12.7,13.9,12.5,13.7,12.4z"/>
	<path d="M2.8,10.8L2.8,10.8c0.1,0,0.2,0,0.3-0.1c0.1-0.1,0.1-0.2,0.1-0.3v0c0-0.1,0-0.2-0.1-0.3C3.1,10,3,10,2.9,10h0
		c-0.1,0-0.2,0-0.3,0.1c-0.1,0.1-0.1,0.2-0.1,0.3v0c0,0.1,0,0.2,0.1,0.3C2.6,10.8,2.7,10.8,2.8,10.8z"/>
	<path d="M2.8,8.4L2.8,8.4c0.1,0,0.2,0,0.3-0.1C3.2,8.2,3.3,8.1,3.3,8v0c0-0.1,0-0.2-0.1-0.3C3.1,7.6,3,7.6,2.9,7.6h0
		C2.6,7.6,2.5,7.8,2.5,8v0c0,0.1,0,0.2,0.1,0.3C2.6,8.4,2.7,8.4,2.8,8.4z"/>
</g>
</svg>
